{
  "accessors": [
    {
      "bufferView": 0,
      "componentType": 5125,
      "count": 11934,
      "type": "SCALAR"
    },
    {
      "bufferView": 1,
      "componentType": 5126,
      "count": 3333,
      "max": [
        0.1091683039368889,
        0.10934006022558995,
        0.020399999484652657
      ],
      "min": [
        -0.10916830393688891,
        -0.10934006022558995,
        -0.020399999484652657
      ],
      "type": "VEC3"
    },
    {
      "bufferView": 2,
      "componentType": 5126,
      "count": 3333,
      "max": [
        0.9999999999999996,
        0.9999999999999996,
        1.0
      ],
      "min": [
        -0.9999999999999996,
        -0.9999999999999996,
        -1.0
      ],
      "type": "VEC3"
    },
    {
      "bufferView": 3,
      "componentType": 5126,
      "count": 3333,
      "max": [
        1.0,
        0.992828359693478
      ],
      "min": [
        0.0,
        0.0
      ],
      "type": "VEC2"
    }
  ],
  "asset": {
    "generator": "Adobe Illustrator",
    "version": "2.0"
  },
  "bufferViews": [
    {
      "buffer": 0,
      "byteLength": 47736,
      "target": 34963
    },
    {
      "buffer": 0,
      "byteLength": 39996,
      "byteOffset": 47736,
      "target": 34962
    },
    {
      "buffer": 0,
      "byteLength": 39996,
      "byteOffset": 87732,
      "target": 34962
    },
    {
      "buffer": 0,
      "byteLength": 26664,
      "byteOffset": 127728,
      "target": 34962
    }
  ],
  "buffers": [
    {
      "byteLength": 154392,
      "uri": "data:application/octet-stream;base64,"
    }
  ],
  "materials": [
    {
      "doubleSided": true,
      "pbrMetallicRoughness": {
        "baseColorFactor": [
          0.92578125,
          0.2578125,
          0.26953125,
          1.0
        ],
        "metallicFactor": 0.7311481237411499,
        "roughnessFactor": 0.14813180267810822
      }
    }
  ],
  "meshes": [
    {
      "primitives": [
        {
          "attributes": {
            "NORMAL": 2,
            "POSITION": 1,
            "TEXCOORD_0": 3
          },
          "indices": 0,
          "material": 0,
          "mode": 4
        }
      ]
    }
  ],
  "nodes": [
    {
      "mesh": 0
    }
  ],
  "scenes": [
    {
      "nodes": [
        0
      ]
    }
  ]
}
